<mxfile host="app.diagrams.net" agent="Mozilla/5.0 (Macintosh; Intel Mac OS X 10.15; rv:138.0) Gecko/20100101 Firefox/138.0" version="27.1.4">
  <diagram name="Page-1" id="Q7pqP5jqkHvtgQZ-vjG6">
    <mxGraphModel dx="1234" dy="742" grid="1" gridSize="10" guides="1" tooltips="1" connect="1" arrows="1" fold="1" page="1" pageScale="1" pageWidth="850" pageHeight="1100" math="0" shadow="0">
      <root>
        <mxCell id="0" />
        <mxCell id="1" parent="0" />
        <mxCell id="1VFmmPi6dXNytY9Z7WYT-1" value="Instruct" style="swimlane;fontStyle=0;childLayout=stackLayout;horizontal=1;startSize=30;horizontalStack=0;resizeParent=1;resizeParentMax=0;resizeLast=0;collapsible=1;marginBottom=0;whiteSpace=wrap;html=1;" parent="1" vertex="1">
          <mxGeometry x="290" y="660" width="140" height="120" as="geometry" />
        </mxCell>
        <mxCell id="1VFmmPi6dXNytY9Z7WYT-2" value="Layer 15" style="text;strokeColor=#82b366;fillColor=#d5e8d4;align=left;verticalAlign=middle;spacingLeft=4;spacingRight=4;overflow=hidden;points=[[0,0.5],[1,0.5]];portConstraint=eastwest;rotatable=0;whiteSpace=wrap;html=1;" parent="1VFmmPi6dXNytY9Z7WYT-1" vertex="1">
          <mxGeometry y="30" width="140" height="30" as="geometry" />
        </mxCell>
        <mxCell id="1VFmmPi6dXNytY9Z7WYT-3" value="..." style="text;strokeColor=#82b366;fillColor=#d5e8d4;align=left;verticalAlign=middle;spacingLeft=4;spacingRight=4;overflow=hidden;points=[[0,0.5],[1,0.5]];portConstraint=eastwest;rotatable=0;whiteSpace=wrap;html=1;" parent="1VFmmPi6dXNytY9Z7WYT-1" vertex="1">
          <mxGeometry y="60" width="140" height="30" as="geometry" />
        </mxCell>
        <mxCell id="1VFmmPi6dXNytY9Z7WYT-4" value="Layer 0" style="text;strokeColor=#82b366;fillColor=#d5e8d4;align=left;verticalAlign=middle;spacingLeft=4;spacingRight=4;overflow=hidden;points=[[0,0.5],[1,0.5]];portConstraint=eastwest;rotatable=0;whiteSpace=wrap;html=1;" parent="1VFmmPi6dXNytY9Z7WYT-1" vertex="1">
          <mxGeometry y="90" width="140" height="30" as="geometry" />
        </mxCell>
        <mxCell id="1VFmmPi6dXNytY9Z7WYT-5" value="Base" style="swimlane;fontStyle=0;childLayout=stackLayout;horizontal=1;startSize=30;horizontalStack=0;resizeParent=1;resizeParentMax=0;resizeLast=0;collapsible=1;marginBottom=0;whiteSpace=wrap;html=1;" parent="1" vertex="1">
          <mxGeometry x="520" y="660" width="140" height="120" as="geometry" />
        </mxCell>
        <mxCell id="1VFmmPi6dXNytY9Z7WYT-6" value="Layer 15" style="text;strokeColor=#b85450;fillColor=#f8cecc;align=left;verticalAlign=middle;spacingLeft=4;spacingRight=4;overflow=hidden;points=[[0,0.5],[1,0.5]];portConstraint=eastwest;rotatable=0;whiteSpace=wrap;html=1;" parent="1VFmmPi6dXNytY9Z7WYT-5" vertex="1">
          <mxGeometry y="30" width="140" height="30" as="geometry" />
        </mxCell>
        <mxCell id="1VFmmPi6dXNytY9Z7WYT-7" value="..." style="text;strokeColor=#b85450;fillColor=#f8cecc;align=left;verticalAlign=middle;spacingLeft=4;spacingRight=4;overflow=hidden;points=[[0,0.5],[1,0.5]];portConstraint=eastwest;rotatable=0;whiteSpace=wrap;html=1;" parent="1VFmmPi6dXNytY9Z7WYT-5" vertex="1">
          <mxGeometry y="60" width="140" height="30" as="geometry" />
        </mxCell>
        <mxCell id="1VFmmPi6dXNytY9Z7WYT-8" value="Layer 0" style="text;strokeColor=#b85450;fillColor=#f8cecc;align=left;verticalAlign=middle;spacingLeft=4;spacingRight=4;overflow=hidden;points=[[0,0.5],[1,0.5]];portConstraint=eastwest;rotatable=0;whiteSpace=wrap;html=1;" parent="1VFmmPi6dXNytY9Z7WYT-5" vertex="1">
          <mxGeometry y="90" width="140" height="30" as="geometry" />
        </mxCell>
        <mxCell id="1VFmmPi6dXNytY9Z7WYT-10" value="Merged" style="swimlane;fontStyle=0;childLayout=stackLayout;horizontal=1;startSize=30;horizontalStack=0;resizeParent=1;resizeParentMax=0;resizeLast=0;collapsible=1;marginBottom=0;whiteSpace=wrap;html=1;" parent="1" vertex="1">
          <mxGeometry x="391" y="80" width="140" height="120" as="geometry" />
        </mxCell>
        <mxCell id="1VFmmPi6dXNytY9Z7WYT-11" value="Layer 15" style="text;strokeColor=#9673a6;fillColor=#e1d5e7;align=left;verticalAlign=middle;spacingLeft=4;spacingRight=4;overflow=hidden;points=[[0,0.5],[1,0.5]];portConstraint=eastwest;rotatable=0;whiteSpace=wrap;html=1;" parent="1VFmmPi6dXNytY9Z7WYT-10" vertex="1">
          <mxGeometry y="30" width="140" height="30" as="geometry" />
        </mxCell>
        <mxCell id="1VFmmPi6dXNytY9Z7WYT-12" value="..." style="text;strokeColor=#82b366;fillColor=#d5e8d4;align=left;verticalAlign=middle;spacingLeft=4;spacingRight=4;overflow=hidden;points=[[0,0.5],[1,0.5]];portConstraint=eastwest;rotatable=0;whiteSpace=wrap;html=1;" parent="1VFmmPi6dXNytY9Z7WYT-10" vertex="1">
          <mxGeometry y="60" width="140" height="30" as="geometry" />
        </mxCell>
        <mxCell id="1VFmmPi6dXNytY9Z7WYT-13" value="Layer 0" style="text;strokeColor=#82b366;fillColor=#d5e8d4;align=left;verticalAlign=middle;spacingLeft=4;spacingRight=4;overflow=hidden;points=[[0,0.5],[1,0.5]];portConstraint=eastwest;rotatable=0;whiteSpace=wrap;html=1;" parent="1VFmmPi6dXNytY9Z7WYT-10" vertex="1">
          <mxGeometry y="90" width="140" height="30" as="geometry" />
        </mxCell>
        <mxCell id="1VFmmPi6dXNytY9Z7WYT-14" value="" style="endArrow=classic;html=1;rounded=0;fontSize=12;startSize=8;endSize=8;curved=1;exitX=0.007;exitY=0.067;exitDx=0;exitDy=0;exitPerimeter=0;entryX=0;entryY=0.75;entryDx=0;entryDy=0;" parent="1" source="1VFmmPi6dXNytY9Z7WYT-4" target="1VFmmPi6dXNytY9Z7WYT-10" edge="1">
          <mxGeometry width="50" height="50" relative="1" as="geometry">
            <mxPoint x="470" y="540" as="sourcePoint" />
            <mxPoint x="520" y="490" as="targetPoint" />
            <Array as="points">
              <mxPoint x="20" y="270" />
            </Array>
          </mxGeometry>
        </mxCell>
        <mxCell id="1VFmmPi6dXNytY9Z7WYT-15" value="&lt;div&gt;Also,embed layer,&lt;/div&gt;&lt;div&gt;lm_head,&lt;/div&gt;&lt;div&gt;layer 15 - Q,K,V&lt;/div&gt;" style="text;html=1;align=center;verticalAlign=middle;whiteSpace=wrap;rounded=0;" parent="1" vertex="1">
          <mxGeometry x="130" y="260" width="60" height="30" as="geometry" />
        </mxCell>
        <mxCell id="1VFmmPi6dXNytY9Z7WYT-17" value="" style="endArrow=classic;html=1;rounded=0;fontSize=12;startSize=8;endSize=8;curved=1;exitX=1;exitY=0.5;exitDx=0;exitDy=0;entryX=0.5;entryY=1;entryDx=0;entryDy=0;" parent="1" source="1VFmmPi6dXNytY9Z7WYT-2" edge="1">
          <mxGeometry width="50" height="50" relative="1" as="geometry">
            <mxPoint x="470" y="610" as="sourcePoint" />
            <mxPoint x="380" y="540" as="targetPoint" />
            <Array as="points">
              <mxPoint x="460" y="610" />
            </Array>
          </mxGeometry>
        </mxCell>
        <mxCell id="1VFmmPi6dXNytY9Z7WYT-19" value="" style="endArrow=classic;html=1;rounded=0;fontSize=12;startSize=8;endSize=8;curved=1;exitX=0;exitY=0.5;exitDx=0;exitDy=0;entryX=0.5;entryY=1;entryDx=0;entryDy=0;" parent="1" source="1VFmmPi6dXNytY9Z7WYT-6" edge="1">
          <mxGeometry width="50" height="50" relative="1" as="geometry">
            <mxPoint x="510" y="705" as="sourcePoint" />
            <mxPoint x="580" y="540" as="targetPoint" />
            <Array as="points">
              <mxPoint x="460" y="610" />
            </Array>
          </mxGeometry>
        </mxCell>
        <mxCell id="1VFmmPi6dXNytY9Z7WYT-35" value="&lt;div&gt;Repeat&lt;/div&gt;&lt;div&gt;for&lt;/div&gt;&lt;div&gt;FFN down proj, gate proj&lt;/div&gt;&lt;div&gt;&lt;br&gt;&lt;/div&gt;" style="text;html=1;align=center;verticalAlign=middle;resizable=0;points=[];autosize=1;strokeColor=none;fillColor=none;fontSize=16;" parent="1" vertex="1">
          <mxGeometry x="595" y="554" width="200" height="90" as="geometry" />
        </mxCell>
        <mxCell id="1VFmmPi6dXNytY9Z7WYT-36" value="[8192,2048]" style="text;html=1;align=center;verticalAlign=middle;resizable=0;points=[];autosize=1;strokeColor=none;fillColor=none;fontSize=16;" parent="1" vertex="1">
          <mxGeometry x="270" y="550" width="110" height="30" as="geometry" />
        </mxCell>
        <mxCell id="1VFmmPi6dXNytY9Z7WYT-37" value="[8192,2048]" style="text;html=1;align=center;verticalAlign=middle;resizable=0;points=[];autosize=1;strokeColor=none;fillColor=none;fontSize=16;" parent="1" vertex="1">
          <mxGeometry x="530" y="560" width="110" height="30" as="geometry" />
        </mxCell>
        <mxCell id="THvKB_XOmp7VkbLJ9JOk-1" value="" style="rounded=1;whiteSpace=wrap;html=1;fillColor=#d5e8d4;strokeColor=#82b366;" vertex="1" parent="1">
          <mxGeometry x="315" y="510" width="90" height="30" as="geometry" />
        </mxCell>
        <mxCell id="THvKB_XOmp7VkbLJ9JOk-2" value="" style="rounded=1;whiteSpace=wrap;html=1;fillColor=#f8cecc;strokeColor=#b85450;" vertex="1" parent="1">
          <mxGeometry x="540" y="510" width="90" height="30" as="geometry" />
        </mxCell>
        <mxCell id="THvKB_XOmp7VkbLJ9JOk-22" value="" style="edgeStyle=orthogonalEdgeStyle;rounded=0;orthogonalLoop=1;jettySize=auto;html=1;" edge="1" parent="1" source="THvKB_XOmp7VkbLJ9JOk-3" target="THvKB_XOmp7VkbLJ9JOk-21">
          <mxGeometry relative="1" as="geometry" />
        </mxCell>
        <mxCell id="THvKB_XOmp7VkbLJ9JOk-3" value="" style="shape=table;startSize=0;container=1;collapsible=0;childLayout=tableLayout;fontSize=16;fillColor=#d5e8d4;strokeColor=#82b366;" vertex="1" parent="1">
          <mxGeometry x="430" y="430" width="120" height="40" as="geometry" />
        </mxCell>
        <mxCell id="THvKB_XOmp7VkbLJ9JOk-4" value="" style="shape=tableRow;horizontal=0;startSize=0;swimlaneHead=0;swimlaneBody=0;strokeColor=inherit;top=0;left=0;bottom=0;right=0;collapsible=0;dropTarget=0;fillColor=none;points=[[0,0.5],[1,0.5]];portConstraint=eastwest;fontSize=16;" vertex="1" parent="THvKB_XOmp7VkbLJ9JOk-3">
          <mxGeometry width="120" height="40" as="geometry" />
        </mxCell>
        <mxCell id="THvKB_XOmp7VkbLJ9JOk-5" value="" style="shape=partialRectangle;html=1;whiteSpace=wrap;connectable=0;strokeColor=#82b366;overflow=hidden;fillColor=#d5e8d4;top=0;left=0;bottom=0;right=0;pointerEvents=1;fontSize=16;" vertex="1" parent="THvKB_XOmp7VkbLJ9JOk-4">
          <mxGeometry width="60" height="40" as="geometry">
            <mxRectangle width="60" height="40" as="alternateBounds" />
          </mxGeometry>
        </mxCell>
        <mxCell id="THvKB_XOmp7VkbLJ9JOk-6" value="" style="shape=partialRectangle;html=1;whiteSpace=wrap;connectable=0;strokeColor=#b85450;overflow=hidden;fillColor=#f8cecc;top=0;left=0;bottom=0;right=0;pointerEvents=1;fontSize=16;" vertex="1" parent="THvKB_XOmp7VkbLJ9JOk-4">
          <mxGeometry x="60" width="60" height="40" as="geometry">
            <mxRectangle width="60" height="40" as="alternateBounds" />
          </mxGeometry>
        </mxCell>
        <mxCell id="THvKB_XOmp7VkbLJ9JOk-16" value="" style="endArrow=classic;html=1;rounded=0;exitX=0.5;exitY=0;exitDx=0;exitDy=0;entryX=0.25;entryY=1;entryDx=0;entryDy=0;" edge="1" parent="1" source="THvKB_XOmp7VkbLJ9JOk-1" target="THvKB_XOmp7VkbLJ9JOk-3">
          <mxGeometry width="50" height="50" relative="1" as="geometry">
            <mxPoint x="400" y="510" as="sourcePoint" />
            <mxPoint x="430" y="470" as="targetPoint" />
          </mxGeometry>
        </mxCell>
        <mxCell id="THvKB_XOmp7VkbLJ9JOk-17" value="" style="endArrow=classic;html=1;rounded=0;exitX=0.5;exitY=0;exitDx=0;exitDy=0;entryX=0.725;entryY=1.025;entryDx=0;entryDy=0;entryPerimeter=0;" edge="1" parent="1" source="THvKB_XOmp7VkbLJ9JOk-2" target="THvKB_XOmp7VkbLJ9JOk-4">
          <mxGeometry width="50" height="50" relative="1" as="geometry">
            <mxPoint x="400" y="510" as="sourcePoint" />
            <mxPoint x="450" y="460" as="targetPoint" />
          </mxGeometry>
        </mxCell>
        <mxCell id="THvKB_XOmp7VkbLJ9JOk-18" value="Concatenation" style="text;html=1;align=center;verticalAlign=middle;resizable=0;points=[];autosize=1;strokeColor=none;fillColor=none;" vertex="1" parent="1">
          <mxGeometry x="315" y="460" width="100" height="30" as="geometry" />
        </mxCell>
        <mxCell id="THvKB_XOmp7VkbLJ9JOk-19" value="[16384,2048]" style="text;html=1;align=center;verticalAlign=middle;resizable=0;points=[];autosize=1;strokeColor=none;fillColor=none;" vertex="1" parent="1">
          <mxGeometry x="520" y="400" width="90" height="30" as="geometry" />
        </mxCell>
        <mxCell id="THvKB_XOmp7VkbLJ9JOk-24" value="" style="edgeStyle=orthogonalEdgeStyle;rounded=0;orthogonalLoop=1;jettySize=auto;html=1;" edge="1" parent="1" source="THvKB_XOmp7VkbLJ9JOk-21" target="THvKB_XOmp7VkbLJ9JOk-23">
          <mxGeometry relative="1" as="geometry" />
        </mxCell>
        <mxCell id="THvKB_XOmp7VkbLJ9JOk-21" value="Hypernetwork (FFN - Down proj)" style="rounded=0;whiteSpace=wrap;html=1;fillColor=#e1d5e7;strokeColor=#9673a6;" vertex="1" parent="1">
          <mxGeometry x="436.88" y="350" width="106.25" height="30" as="geometry" />
        </mxCell>
        <mxCell id="THvKB_XOmp7VkbLJ9JOk-23" value="Hypernetwork (FFN - Up proj)" style="rounded=0;whiteSpace=wrap;html=1;fillColor=#e1d5e7;strokeColor=#9673a6;" vertex="1" parent="1">
          <mxGeometry x="436.88" y="280" width="106.25" height="30" as="geometry" />
        </mxCell>
        <mxCell id="THvKB_XOmp7VkbLJ9JOk-25" value="[512,2048]" style="text;html=1;align=center;verticalAlign=middle;resizable=0;points=[];autosize=1;strokeColor=none;fillColor=none;" vertex="1" parent="1">
          <mxGeometry x="535" y="330" width="80" height="30" as="geometry" />
        </mxCell>
        <mxCell id="THvKB_XOmp7VkbLJ9JOk-26" value="[8192,2048]" style="text;html=1;align=center;verticalAlign=middle;resizable=0;points=[];autosize=1;strokeColor=none;fillColor=none;" vertex="1" parent="1">
          <mxGeometry x="570" y="238" width="90" height="30" as="geometry" />
        </mxCell>
        <mxCell id="THvKB_XOmp7VkbLJ9JOk-27" value="" style="endArrow=classic;html=1;rounded=0;exitX=0.5;exitY=0;exitDx=0;exitDy=0;curved=1;" edge="1" parent="1">
          <mxGeometry width="50" height="50" relative="1" as="geometry">
            <mxPoint x="491.0050000000001" y="280" as="sourcePoint" />
            <mxPoint x="531" y="130" as="targetPoint" />
            <Array as="points">
              <mxPoint x="590" y="210" />
            </Array>
          </mxGeometry>
        </mxCell>
      </root>
    </mxGraphModel>
  </diagram>
</mxfile>
